<svg width="197" height="44" viewBox="0 0 197 44" fill="none" xmlns="http://www.w3.org/2000/svg">
<g clip-path="url(#clip0_205_2884)">
<path d="M21.4539 13.6419C21.4532 13.5527 21.4539 13.4601 21.4553 13.3647C21.4029 10.7957 20.2235 5.90815 12.3595 4.20862L12.3615 4.24062C12.3833 4.64984 12.4344 5.21636 12.542 5.87683C13.0384 8.88779 14.7693 13.8584 20.7151 14.4862C18.861 11.9416 15.7532 8.03257 15.7437 8.021C15.5551 7.78268 15.5946 7.43746 15.8315 7.24885C16.0685 7.06229 16.4137 7.1011 16.6017 7.33873C16.6119 7.34963 19.565 11.0667 21.4546 13.6412" fill="#E7A9A7"/>
<path d="M27.4031 7.3394C27.5904 7.10109 27.9363 7.06296 28.1719 7.24952C28.4109 7.43813 28.449 7.78335 28.2618 8.02167C28.2522 8.03324 25.1513 11.9328 23.2972 14.478C30.1071 13.6636 31.3756 6.5053 31.6072 4.21814C23.7854 5.9238 22.6047 10.7916 22.5495 13.3586C22.5509 13.456 22.5515 13.5506 22.5509 13.6425C24.4397 11.068 27.3929 7.35098 27.4038 7.34008" fill="#E7A9A7"/>
<path d="M22 0C23.097 0 23.9856 0.889941 23.9856 1.98552C23.9856 3.08109 23.0976 3.97103 22 3.97103C20.9023 3.97103 20.0144 3.08313 20.0144 1.98552C20.0144 0.887899 20.9037 0 22 0Z" fill="#E7A9A7"/>
<path d="M22.5468 30.3581C22.5475 30.4487 22.5468 30.542 22.5454 30.6386C22.5985 33.2097 23.7799 38.0918 31.6412 39.7914L31.6398 39.7614C31.6181 39.3494 31.5677 38.7836 31.4594 38.1252C30.9637 35.1122 29.2328 30.1436 23.2863 29.5138C25.1397 32.0583 28.2475 35.9674 28.257 35.981C28.4456 36.2166 28.4061 36.5618 28.1692 36.7504C27.9336 36.939 27.5877 36.8982 27.4004 36.6626C27.3895 36.6497 24.4363 32.934 22.5475 30.3581" fill="#E7A9A7"/>
<path d="M16.5982 36.6625C16.4103 36.8981 16.0651 36.939 15.8288 36.7504C15.5905 36.5618 15.5517 36.2165 15.7396 35.981C15.7498 35.968 18.8501 32.0678 20.7049 29.5226C13.8936 30.3383 12.6264 37.4973 12.3949 39.7824C20.2208 38.0761 21.3981 33.2035 21.4512 30.6379C21.4498 30.5426 21.4492 30.45 21.4498 30.3601C19.5603 32.936 16.6078 36.6503 16.5976 36.6632" fill="#E7A9A7"/>
<path d="M22 44C20.9037 44 20.0144 43.1121 20.0144 42.0144C20.0144 40.9168 20.9037 40.0289 22 40.0289C23.0963 40.0289 23.9856 40.9189 23.9856 42.0144C23.9856 43.11 23.0976 44 22 44Z" fill="#E7A9A7"/>
<path d="M30.3597 21.454C30.4571 21.4533 30.5592 21.454 30.6634 21.456C33.2394 21.3954 38.0984 20.1963 39.7919 12.3591L39.7606 12.3612C39.3507 12.385 38.7841 12.434 38.1243 12.5437C35.1119 13.038 30.1439 14.7702 29.5147 20.7145C32.0593 18.8611 35.9678 15.7541 35.9815 15.7453C36.2171 15.5567 36.563 15.5955 36.7502 15.8331C36.9388 16.0687 36.8993 16.4139 36.6624 16.6032C36.6501 16.6127 32.935 19.5651 30.3604 21.4546" fill="#E7A9A7"/>
<path d="M36.6624 27.4022C36.9 27.5908 36.9388 27.9361 36.7502 28.1723C36.563 28.4107 36.2171 28.4488 35.9815 28.2622C35.9678 28.2506 32.0689 25.1519 29.5236 23.2971C30.3373 30.1068 37.4972 31.3746 39.7837 31.6068C38.0719 23.7587 33.176 22.5964 30.6164 22.5494C30.5279 22.5508 30.4421 22.5508 30.3591 22.5494C32.9343 24.4389 36.6494 27.392 36.6617 27.4016" fill="#E7A9A7"/>
<path d="M44 22.0014C44 23.097 43.1114 23.9869 42.0144 23.9869C40.9175 23.9869 40.0289 23.097 40.0289 22.0014C40.0289 20.9058 40.9188 20.0159 42.0144 20.0159C43.1101 20.0159 44 20.9038 44 22.0014Z" fill="#E7A9A7"/>
<path d="M13.6423 22.5461C13.5593 22.5468 13.4735 22.5461 13.3856 22.5454C10.822 22.5917 5.91317 23.7554 4.20813 31.6409L4.24013 31.6389C4.65005 31.6178 5.2159 31.566 5.87571 31.4584C8.88881 30.9621 13.8575 29.2319 14.486 23.2856C11.9414 25.139 8.03288 28.2459 8.01995 28.2575C7.78298 28.4461 7.43776 28.4053 7.24982 28.1697C7.06189 27.9314 7.1007 27.5861 7.33834 27.4003C7.3506 27.3894 11.0671 24.4342 13.643 22.5468" fill="#E7A9A7"/>
<path d="M7.33834 16.5977C7.1007 16.4111 7.06188 16.0659 7.24982 15.8283C7.43775 15.5906 7.78298 15.5518 8.01994 15.7404C8.03288 15.75 11.9325 18.8494 14.4772 20.7035C13.6614 13.8931 6.50353 12.626 4.21698 12.3951C5.91997 20.2024 10.7736 21.3933 13.3441 21.4512C13.4462 21.4491 13.5456 21.4484 13.641 21.4498C11.065 19.561 7.34992 16.6086 7.33766 16.5977" fill="#E7A9A7"/>
<path d="M0 22.0014C0 20.9038 0.889288 20.0159 1.98558 20.0159C3.08187 20.0159 3.97115 20.9038 3.97115 22.0014C3.97115 23.099 3.08187 23.9869 1.98558 23.9869C0.889288 23.9869 0 23.097 0 22.0014Z" fill="#E7A9A7"/>
<path d="M22 18C24.2099 18 26 19.7888 26 22C26 24.2112 24.2112 26 22 26C19.7888 26 18 24.2071 18 22C18 19.7929 19.7915 18 22 18Z" fill="#E7A9A7"/>
<path d="M19 22C19 20.3416 20.3436 19 22 19C23.6564 19 25 20.3416 25 22C25 23.6584 23.6564 25 22 25C20.3436 25 19 23.6553 19 22Z" fill="#E7A9A7"/>
<path fill-rule="evenodd" clip-rule="evenodd" d="M22 20C20.8955 20 20 20.8943 20 22C20 23.1033 20.8961 24 22 24C23.1045 24 24 23.1057 24 22C24 20.8943 23.1045 20 22 20ZM22 19C20.3436 19 19 20.3416 19 22C19 23.6553 20.3436 25 22 25C23.6564 25 25 23.6584 25 22C25 20.3416 23.6564 19 22 19Z" fill="white"/>
</g>
<path d="M186.387 35.1901C185.694 35.1901 185.11 34.9707 184.636 34.532C184.162 34.0932 183.925 33.5082 183.925 32.7769C183.925 32.0091 184.126 31.1499 184.527 30.1992C184.964 29.212 185.347 28.3894 185.676 27.7312C185.238 28.2797 184.673 28.9744 183.98 29.8153C183.287 30.6197 182.539 31.4241 181.737 32.2285C180.934 33.0329 180.114 33.7093 179.275 34.2577C178.436 34.7696 177.634 35.0256 176.868 35.0256C176.065 35.0256 175.482 34.7331 175.117 34.1481C174.789 33.563 174.625 32.9232 174.625 32.2285C174.625 31.7897 174.68 31.351 174.789 30.9122C175.044 29.9616 175.537 28.9744 176.266 27.9506C176.995 26.8903 177.834 25.8848 178.783 24.9341C179.767 23.9469 180.77 23.0329 181.791 22.1919C182.813 21.351 183.724 20.6563 184.527 20.1078C184.892 19.8519 185.274 19.6325 185.676 19.4497C186.113 19.2303 186.569 19.1206 187.043 19.1206C187.627 19.1206 188.156 19.2851 188.63 19.6142C189.14 19.9067 189.596 20.2541 189.997 20.6563C190.107 20.4734 190.18 20.3272 190.216 20.2175C190.289 20.1078 190.435 20.053 190.654 20.053C190.8 20.053 191.128 20.1078 191.639 20.2175C192.186 20.3272 192.696 20.4552 193.171 20.6014C193.645 20.7477 193.882 20.8939 193.882 21.0402C193.882 21.0767 193.863 21.095 193.827 21.095C193.572 21.4606 193.298 21.8263 193.006 22.1919C192.715 22.5575 192.423 22.9232 192.131 23.2888C191.219 24.5319 190.326 25.8299 189.45 27.1828C188.612 28.5356 187.882 29.9433 187.262 31.4058C187.189 31.6252 187.116 31.8629 187.043 32.1188C186.97 32.3382 186.934 32.5758 186.934 32.8318C186.934 33.4899 187.262 33.819 187.919 33.819C188.429 33.819 189.049 33.5448 189.779 32.9963C190.508 32.4479 191.256 31.7715 192.022 30.9671C192.824 30.1627 193.572 29.3583 194.265 28.5539C194.958 27.7129 195.541 27.0182 196.015 26.4698C196.489 25.9213 196.763 25.6471 196.836 25.6471C196.945 25.6471 197 25.7203 197 25.8665C197 25.9396 196.726 26.3053 196.179 26.9634C195.632 27.585 194.976 28.3162 194.21 29.1572C193.444 29.9981 192.751 30.766 192.131 31.4607C191.511 32.1188 191.11 32.5393 190.928 32.7221C190.344 33.2705 189.651 33.819 188.849 34.3674C188.046 34.9159 187.226 35.1901 186.387 35.1901ZM177.47 33.7641C177.761 33.7641 178.053 33.691 178.345 33.5448C178.673 33.3619 178.947 33.2157 179.166 33.106C180.588 32.2651 181.937 31.1682 183.214 29.8153C184.49 28.4625 185.676 27.0182 186.77 25.4826C187.864 23.9469 188.849 22.4844 189.724 21.095C189.651 21.0585 189.523 21.0402 189.341 21.0402C188.976 21.0402 188.593 21.1681 188.192 21.4241C186.113 22.4844 184.126 23.9287 182.229 25.7568C180.369 27.5484 178.819 29.468 177.579 31.5155C177.433 31.7349 177.287 32.0091 177.141 32.3382C177.032 32.6307 176.977 32.9232 176.977 33.2157C176.977 33.5813 177.141 33.7641 177.47 33.7641Z" fill="#2C1607"/>
<path d="M167.801 35.19C167.144 35.19 166.561 35.0072 166.05 34.6415C165.576 34.2393 165.339 33.6909 165.339 32.9962C165.339 32.3746 165.558 31.5337 165.996 30.4733C166.47 29.413 167.017 28.2795 167.637 27.073C168.293 25.8664 168.932 24.7512 169.552 23.7274C170.172 22.7037 170.664 21.8993 171.029 21.3143H168.895L169.223 20.7658H171.357C171.868 19.9249 172.36 19.0839 172.834 18.243C173.345 17.402 173.892 16.5793 174.475 15.7749C174.803 15.2996 175.15 14.8609 175.515 14.4587C175.916 14.0199 176.426 13.8005 177.046 13.8005C177.265 13.8005 177.63 13.8737 178.141 14.0199C178.651 14.1296 179.125 14.2759 179.563 14.4587C180.037 14.6415 180.292 14.8426 180.329 15.062C179.782 15.2448 179.144 15.7201 178.414 16.4879C177.721 17.2192 177.065 18.0053 176.445 18.8463C175.825 19.6506 175.351 20.2905 175.022 20.7658H177.539L177.211 21.3143H174.639C174.275 21.7896 173.728 22.5574 172.998 23.6177C172.305 24.6415 171.576 25.7567 170.81 26.9633C170.044 28.1698 169.387 29.3033 168.84 30.3636C168.33 31.3874 168.074 32.1735 168.074 32.722C168.074 33.4532 168.476 33.8189 169.278 33.8189C169.825 33.8189 170.463 33.5446 171.193 32.9962C171.922 32.4477 172.67 31.7713 173.436 30.9669C174.202 30.1625 174.931 29.3582 175.624 28.5538C176.317 27.7128 176.901 27.0181 177.375 26.4697C177.849 25.9212 178.122 25.647 178.195 25.647C178.305 25.647 178.359 25.7201 178.359 25.8664C178.359 25.9029 178.195 26.1223 177.867 26.5245C177.575 26.8901 177.265 27.2558 176.937 27.6214C176.609 27.987 176.39 28.2247 176.281 28.3344C175.806 28.8828 175.241 29.541 174.585 30.3088C173.965 31.0766 173.272 31.8444 172.506 32.6123C171.74 33.3435 170.956 33.9651 170.153 34.477C169.351 34.9523 168.567 35.19 167.801 35.19Z" fill="#2C1607"/>
<path d="M158.023 37.0001C156.965 37.0001 156.181 36.5796 155.671 35.7386C155.196 34.9343 154.959 34.0567 154.959 33.1061C154.959 33.033 154.978 32.9233 155.014 32.777C155.014 32.6308 155.087 32.5577 155.233 32.5577C155.342 32.5577 155.415 32.6308 155.452 32.777C155.488 32.8867 155.525 32.9781 155.561 33.0513C155.889 34.1481 156.637 34.6966 157.804 34.6966C158.424 34.6966 158.935 34.4955 159.336 34.0933C159.737 33.6911 159.938 33.1609 159.938 32.5028C159.938 31.7715 159.755 31.0037 159.391 30.1993C159.026 29.3949 158.643 28.5357 158.242 27.6216C157.877 26.7076 157.695 25.7569 157.695 24.7697C157.695 23.9653 157.822 23.2523 158.078 22.6308C158.333 21.9726 158.807 21.3511 159.5 20.766C160.229 20.1445 161.068 19.596 162.017 19.1207C162.965 18.6454 163.913 18.2797 164.861 18.0238C165.81 17.7679 166.612 17.6399 167.268 17.6399C168.034 17.6399 168.545 17.8227 168.8 18.1883C169.056 18.554 169.183 19.1024 169.183 19.8337C169.183 19.9799 169.165 20.181 169.128 20.437C169.092 20.6564 168.983 20.8026 168.8 20.8757C167.998 21.1317 167.141 21.4973 166.229 21.9726C165.317 22.4114 164.697 23.0512 164.369 23.8922C164.332 24.0019 164.26 24.0567 164.15 24.0567C163.968 24.0567 163.877 23.9653 163.877 23.7825C163.877 23.2706 164.187 22.7039 164.807 22.0823C165.427 21.4242 165.937 20.9671 166.338 20.7112C165.281 21.0037 164.223 21.4242 163.165 21.9726C162.144 22.4845 161.287 23.1609 160.594 24.0019C159.938 24.8428 159.609 25.9032 159.609 27.1829C159.609 28.3163 159.847 29.3949 160.321 30.4187C160.795 31.4059 161.032 32.4662 161.032 33.5997C161.032 34.5138 160.777 35.2999 160.266 35.958C159.792 36.6527 159.044 37.0001 158.023 37.0001Z" fill="#2C1607"/>
<path d="M156.331 18.4626C155.967 18.4626 155.657 18.3347 155.401 18.0787C155.182 17.7862 155.073 17.4572 155.073 17.0915C155.073 16.47 155.347 15.8849 155.894 15.3365C156.477 14.7515 157.079 14.459 157.699 14.459C158.064 14.459 158.337 14.587 158.52 14.8429C158.738 15.0623 158.848 15.3548 158.848 15.7204C158.848 16.3054 158.574 16.9087 158.027 17.5303C157.517 18.1519 156.951 18.4626 156.331 18.4626ZM148.344 35.1903C147.651 35.1903 147.068 34.9892 146.593 34.587C146.156 34.1848 145.937 33.6363 145.937 32.9416C145.937 32.3932 146.119 31.6437 146.484 30.693C146.849 29.7424 147.305 28.7186 147.852 27.6217C148.399 26.5248 148.928 25.5193 149.438 24.6053C149.985 23.6546 150.423 22.9416 150.751 22.4663C151.043 21.991 151.371 21.5157 151.736 21.0403C152.101 20.565 152.593 20.3274 153.213 20.3274C153.395 20.3274 153.724 20.4005 154.198 20.5467C154.708 20.693 155.182 20.8758 155.62 21.0952C156.094 21.278 156.331 21.4791 156.331 21.6985C155.93 21.8447 155.42 22.2652 154.8 22.9599C154.179 23.618 153.523 24.4042 152.83 25.3182C152.137 26.2323 151.481 27.183 150.861 28.1702C150.277 29.1574 149.785 30.0714 149.383 30.9124C149.019 31.7533 148.836 32.3932 148.836 32.832C148.836 33.4901 149.165 33.8192 149.821 33.8192C150.332 33.8192 150.952 33.5449 151.681 32.9965C152.411 32.448 153.158 31.7716 153.924 30.9672C154.727 30.1629 155.474 29.3585 156.167 28.5541C156.86 27.7131 157.444 27.0184 157.918 26.47C158.392 25.9215 158.665 25.6473 158.738 25.6473C158.884 25.6473 158.957 25.7204 158.957 25.8667C158.957 25.9398 158.775 26.1958 158.41 26.6345C158.045 27.0733 157.571 27.6217 156.988 28.2798C156.441 28.9014 155.857 29.5413 155.237 30.1994C154.654 30.821 154.143 31.3694 153.705 31.8448C153.268 32.3201 152.976 32.6126 152.83 32.7223C152.247 33.2707 151.554 33.8192 150.751 34.3676C149.985 34.9161 149.183 35.1903 148.344 35.1903Z" fill="#2C1607"/>
<path d="M139.064 35.1901C138.335 35.1901 137.733 34.9707 137.259 34.532C136.821 34.0932 136.603 33.5082 136.603 32.7769C136.603 32.0457 136.821 31.1499 137.259 30.0895C137.733 29.0292 138.298 27.914 138.955 26.744C139.611 25.574 140.268 24.4771 140.924 23.4533C141.581 22.393 142.11 21.5338 142.511 20.8756C142.256 20.9853 141.946 21.0402 141.581 21.0402C141.18 21.0402 140.76 20.9853 140.323 20.8756C139.885 20.7294 139.466 20.5831 139.064 20.4369C138.955 20.6197 138.681 21.0219 138.244 21.6434C137.843 22.2285 137.35 22.9232 136.767 23.7275C136.22 24.4954 135.654 25.2449 135.071 25.9762C134.487 26.7074 133.977 27.329 133.539 27.8409C133.138 28.3162 132.864 28.5539 132.718 28.5539C132.609 28.5539 132.554 28.499 132.554 28.3893C132.554 28.3162 132.609 28.2248 132.718 28.1151C133.12 27.6032 133.521 27.1096 133.922 26.6343C134.36 26.159 134.779 25.6654 135.18 25.1535C135.8 24.3857 136.384 23.5813 136.931 22.7403C137.478 21.8994 137.97 21.0219 138.408 20.1078C138.189 19.9615 137.897 19.7422 137.533 19.4497C137.168 19.1572 136.986 18.8646 136.986 18.5721C136.986 18.1699 137.223 17.786 137.697 17.4204C138.171 17.0182 138.7 16.6709 139.283 16.3784C139.867 16.0858 140.304 15.8665 140.596 15.7202C140.742 15.6837 141.07 15.5557 141.581 15.3363C142.128 15.0804 142.42 14.9524 142.456 14.9524C142.602 14.9524 142.675 15.0255 142.675 15.1718C142.675 15.2083 142.438 15.446 141.964 15.8848C141.526 16.2869 141.07 16.7805 140.596 17.3656C140.159 17.9506 139.94 18.5356 139.94 19.1206C139.94 19.6325 140.159 19.9981 140.596 20.2175C141.034 20.4369 141.472 20.5466 141.909 20.5466C142.31 20.5466 142.639 20.4734 142.894 20.3272C143.003 20.1444 143.149 20.0529 143.332 20.0529C143.623 20.0529 143.988 20.1078 144.426 20.2175C144.863 20.2906 145.265 20.4369 145.629 20.6562C145.994 20.8391 146.176 21.1133 146.176 21.4789C146.176 21.7349 146.103 21.9908 145.957 22.2467C145.812 22.4661 145.647 22.6672 145.465 22.85C145.1 23.2888 144.553 23.9469 143.824 24.8244C143.131 25.6654 142.402 26.5977 141.636 27.6215C140.906 28.6453 140.286 29.6142 139.776 30.5283C139.265 31.4424 139.01 32.1553 139.01 32.6672C139.01 33.0329 139.137 33.3436 139.393 33.5996C139.648 33.819 139.958 33.9287 140.323 33.9287C140.906 33.9287 141.581 33.6544 142.347 33.106C143.113 32.521 143.879 31.8263 144.645 31.0219C145.447 30.1809 146.195 29.3583 146.888 28.5539C147.58 27.7495 148.164 27.0731 148.638 26.5246C149.112 25.9396 149.386 25.6471 149.459 25.6471C149.605 25.6471 149.678 25.7202 149.678 25.8665C149.678 25.9396 149.495 26.1956 149.131 26.6343C148.766 27.0731 148.292 27.6215 147.708 28.2797C147.161 28.9012 146.578 29.5411 145.957 30.1992C145.374 30.8208 144.863 31.3692 144.426 31.8446C143.988 32.3199 143.696 32.6124 143.55 32.7221C142.967 33.2705 142.274 33.819 141.472 34.3674C140.706 34.9159 139.903 35.1901 139.064 35.1901Z" fill="#2C1607"/>
<path d="M123.396 35.0257C122.375 35.0257 121.39 34.7698 120.442 34.2579C119.494 33.746 119.02 32.905 119.02 31.735C119.02 31.5888 119.02 31.4608 119.02 31.3511C119.056 31.2049 119.093 31.0586 119.129 30.9124C119.421 29.6692 119.95 28.4443 120.716 27.2378C121.518 26.0312 122.466 24.8977 123.56 23.8374C124.691 22.7771 125.858 21.8447 127.062 21.0403C128.302 20.1994 129.487 19.5595 130.618 19.1207C130.727 19.0476 130.837 18.9928 130.946 18.9562C131.055 18.9196 131.183 18.9014 131.329 18.9014C131.657 18.9014 131.931 19.0842 132.149 19.4498C132.368 19.7789 132.532 20.1628 132.642 20.6016C132.751 21.0403 132.806 21.3877 132.806 21.6436C132.806 22.3017 132.605 22.9782 132.204 23.6729C131.839 24.331 131.42 24.8794 130.946 25.3182C131.165 25.3182 131.384 25.3365 131.602 25.373C131.821 25.373 132.04 25.373 132.259 25.373C132.332 25.373 132.368 25.4096 132.368 25.4827C132.368 25.5193 132.332 25.5559 132.259 25.5924C132.186 25.629 132.113 25.6655 132.04 25.7021L130.399 25.8666C129.378 25.9763 128.32 26.1409 127.226 26.3602C126.132 26.5796 125.092 26.8721 124.108 27.2378C123.633 27.8959 123.159 28.7186 122.685 29.7058C122.211 30.693 121.974 31.6071 121.974 32.448C121.974 32.9233 122.083 33.3438 122.302 33.7094C122.521 34.0385 122.904 34.203 123.451 34.203C123.779 34.203 124.108 34.1482 124.436 34.0385C124.8 33.8923 125.129 33.746 125.421 33.5997C127.171 32.7222 128.739 31.6802 130.125 30.4736C131.511 29.2305 132.861 27.8959 134.174 26.4699C134.247 26.3968 134.301 26.3602 134.338 26.3602C134.411 26.3602 134.447 26.3968 134.447 26.4699C134.447 26.5796 134.411 26.7076 134.338 26.8538C134.265 26.9635 134.192 27.0549 134.119 27.1281C133.134 28.3712 132.004 29.6326 130.727 30.9124C129.451 32.1555 128.156 33.1976 126.843 34.0385C125.822 34.6966 124.673 35.0257 123.396 35.0257ZM125.475 25.5924C126.314 25.5193 127.153 25.4644 127.992 25.4279C128.831 25.3548 129.669 25.3182 130.508 25.3182C130.727 25.0257 130.909 24.6418 131.055 24.1665C131.238 23.6546 131.329 23.2158 131.329 22.8502C131.329 22.6674 131.292 22.4846 131.219 22.3017C131.147 22.0824 130.982 21.9727 130.727 21.9727H130.563C130.125 22.1189 129.56 22.4114 128.867 22.8502C128.211 23.2889 127.572 23.7643 126.952 24.2761C126.332 24.788 125.84 25.2268 125.475 25.5924Z" fill="#2C1607"/>
<path d="M107.039 35.2998C106.091 35.2998 105.38 34.9525 104.906 34.2578C104.468 33.5265 104.249 32.7404 104.249 31.8995C104.249 31.607 104.268 31.351 104.304 31.1316C104.341 30.8757 104.413 30.6198 104.523 30.3638C104.158 30.9123 103.648 31.5704 102.991 32.3382C102.335 33.106 101.623 33.7825 100.857 34.3675C100.092 34.9159 99.3257 35.1901 98.5598 35.1901C97.8668 35.1901 97.3015 34.9342 96.8639 34.4223C96.4262 33.9104 96.2074 33.3071 96.2074 32.6124C96.2074 31.479 96.4445 30.309 96.9186 29.1024C97.4292 27.8592 98.0127 26.6709 98.6692 25.5375C99.3622 24.404 99.9457 23.3985 100.42 22.521C100.93 21.6435 101.186 21.0219 101.186 20.6563C101.186 20.4735 101.131 20.3638 101.022 20.3272C101.678 20.0347 102.298 19.8885 102.882 19.8885C103.246 19.8885 103.702 19.9799 104.249 20.1627C104.796 20.3089 105.07 20.6197 105.07 21.0951C105.07 21.2413 105.033 21.3876 104.961 21.5338C104.924 21.6435 104.869 21.7532 104.796 21.8629C103.702 23.3985 102.663 24.9342 101.678 26.4698C100.693 28.0055 99.8363 29.6508 99.1069 31.4059C99.0339 31.6252 98.9428 31.8629 98.8333 32.1188C98.7239 32.3748 98.6692 32.6307 98.6692 32.8867C98.6692 33.5082 98.9792 33.819 99.5992 33.819C100.037 33.819 100.529 33.5996 101.076 33.1609C101.66 32.6856 102.225 32.1188 102.772 31.4607C103.356 30.8026 103.866 30.1627 104.304 29.5411C104.778 28.883 105.125 28.3711 105.343 28.0055C105.891 27.0914 106.419 26.1773 106.93 25.2633C107.477 24.3492 108.024 23.4351 108.571 22.521C108.826 22.1188 109.064 21.7166 109.282 21.3144C109.501 20.9122 109.738 20.5283 109.994 20.1627C110.067 20.0896 110.176 20.053 110.322 20.053C110.504 20.053 110.851 20.1079 111.361 20.2175C111.872 20.3272 112.364 20.4552 112.838 20.6015C113.312 20.7477 113.55 20.894 113.55 21.0402C113.55 21.0768 113.312 21.3876 112.838 21.9726C112.364 22.5576 111.781 23.3071 111.088 24.2212C110.431 25.0987 109.757 26.0676 109.064 27.128C108.371 28.1883 107.787 29.2304 107.313 30.2541C106.839 31.2779 106.602 32.192 106.602 32.9964C106.602 33.362 106.675 33.7093 106.821 34.0384C106.966 34.3675 107.258 34.532 107.696 34.532C108.097 34.532 108.498 34.4223 108.899 34.2029C109.301 33.947 109.647 33.7093 109.939 33.49C110.778 32.8318 111.671 31.9909 112.62 30.9671C113.568 29.9433 114.443 28.8282 115.245 27.6216C116.084 26.3784 116.759 25.1353 117.27 23.8921C117.817 22.6124 118.09 21.4241 118.09 20.3272C118.09 19.8153 117.981 19.3583 117.762 18.9561C117.58 18.5174 117.488 18.2431 117.488 18.1334C117.488 17.9872 117.616 17.9141 117.871 17.9141C118.236 17.9141 118.546 18.0969 118.801 18.4625C119.057 18.7916 119.257 19.1938 119.403 19.6691C119.549 20.1079 119.622 20.4918 119.622 20.8208C119.622 21.7715 119.294 22.8866 118.637 24.1664C117.981 25.4095 117.16 26.6892 116.175 28.0055C115.191 29.2852 114.17 30.4552 113.112 31.5155C112.091 32.5759 111.215 33.3803 110.486 33.9287C110.012 34.2943 109.465 34.6234 108.845 34.9159C108.261 35.1719 107.659 35.2998 107.039 35.2998Z" fill="#2C1607"/>
<path d="M84.5578 35.1904C83.5001 35.1904 82.5154 34.8613 81.6036 34.2032C80.7283 33.5451 80.2906 32.6493 80.2906 31.5158C80.2906 30.6749 80.5642 29.6694 81.1113 28.4994C81.6583 27.3293 82.3695 26.141 83.2448 24.9344C84.1566 23.7279 85.1596 22.6127 86.2537 21.5889C87.3479 20.5286 88.4238 19.6876 89.4814 19.0661C90.5756 18.4079 91.5603 18.0789 92.4356 18.0789C92.7274 18.0789 93.0374 18.1337 93.3656 18.2434C93.7304 18.3165 93.9857 18.4993 94.1315 18.7918C94.861 18.7553 95.3716 18.9747 95.6633 19.45C95.9551 19.8887 96.101 20.4372 96.101 21.0953C96.101 22.0825 95.8092 23.1977 95.2257 24.4408C94.6786 25.684 94.0221 26.8723 93.2562 28.0057C92.4903 29.1392 91.7974 30.0716 91.1774 30.8028L91.5056 30.8577C92.5633 30.8942 93.4933 30.6749 94.2957 30.1995C95.1345 29.7242 95.9004 29.1209 96.5933 28.3897C97.3228 27.6584 98.0157 26.9637 98.6722 26.3056L98.7816 26.1959C98.8911 26.1959 98.9458 26.2873 98.9458 26.4701C98.9458 26.5432 98.9275 26.5981 98.891 26.6346C98.3804 27.3659 97.724 28.1154 96.9216 28.8833C96.1192 29.6145 95.2439 30.2361 94.2957 30.748C93.3474 31.2233 92.3991 31.461 91.4509 31.461C91.305 31.461 91.1591 31.461 91.0132 31.461C90.9038 31.461 90.7762 31.4427 90.6303 31.4061C90.1562 31.918 89.5908 32.4665 88.9344 33.0515C88.2779 33.6365 87.5667 34.1484 86.8008 34.5871C86.0714 34.9893 85.3237 35.1904 84.5578 35.1904ZM84.886 34.3677C85.8343 34.3677 86.7461 33.9655 87.6214 33.1612C88.5332 32.3568 89.2808 31.6255 89.8644 30.9674C89.6456 30.8577 89.372 30.6749 89.0438 30.4189C88.7155 30.1264 88.5514 29.8339 88.5514 29.5414C88.5514 29.0295 88.8979 28.5542 89.5908 28.1154C90.2838 27.6401 91.0497 27.2196 91.8885 26.854C92.7274 26.4884 93.3292 26.2142 93.6939 26.0313C94.0586 25.4463 94.3868 24.7699 94.6786 24.0021C94.9704 23.1977 95.1163 22.4482 95.1163 21.7535C95.1163 21.3513 95.0251 21.0039 94.8427 20.7114C94.6968 20.4189 94.3868 20.2726 93.9127 20.2726C93.5115 20.2726 93.0921 20.3641 92.6544 20.5469C92.2168 20.7297 91.8338 20.9125 91.5056 21.0953C89.6456 22.0825 87.9496 23.4354 86.4178 25.1538C84.9225 26.8723 83.8831 28.7736 83.2995 30.8577C83.2631 31.0771 83.2084 31.3147 83.1354 31.5707C83.0989 31.79 83.0807 32.0094 83.0807 32.2288C83.0807 32.8138 83.2266 33.3257 83.5184 33.7644C83.8101 34.1666 84.266 34.3677 84.886 34.3677Z" fill="#2C1607"/>
<path d="M72.9769 35.1901C72.1745 35.1901 71.5545 34.9341 71.1169 34.4222C70.7157 33.8738 70.5151 33.2156 70.5151 32.4478C70.5151 31.8628 70.8251 30.8939 71.4451 29.5411C72.0651 28.1882 72.8492 26.6708 73.7975 24.9889C74.7458 23.307 75.7305 21.6069 76.7517 19.8884C77.8094 18.1699 78.7576 16.6343 79.5964 15.2814C80.4718 13.9286 81.1282 12.9231 81.5659 12.265C81.9306 11.7165 82.2953 11.1864 82.66 10.6745C83.0248 10.126 83.5718 9.85181 84.3013 9.85181C84.5201 9.85181 84.903 9.92493 85.4501 10.0712C86.0336 10.2174 86.5807 10.4003 87.0913 10.6196C87.6384 10.8024 87.9302 11.0035 87.9666 11.2229C87.2737 11.4789 86.4166 12.1918 85.3954 13.3619C84.4107 14.4953 83.3348 15.8847 82.1677 17.5301C81.0371 19.1388 79.9247 20.8207 78.8305 22.5758C77.7729 24.2942 76.8246 25.8847 75.9858 27.3473C75.1469 28.7732 74.5452 29.8701 74.1804 30.6379C74.0346 30.967 73.8704 31.3326 73.6881 31.7348C73.5422 32.137 73.4693 32.5392 73.4693 32.9414C73.4693 33.5264 73.7793 33.8189 74.3993 33.8189C74.9463 33.8189 75.5846 33.5447 76.314 32.9963C77.0435 32.4478 77.7911 31.7714 78.557 30.967C79.3229 30.1626 80.0523 29.3582 80.7453 28.5538C81.4383 27.7129 82.0218 27.0182 82.4959 26.4698C82.97 25.9213 83.2436 25.6471 83.3165 25.6471C83.4624 25.6471 83.5354 25.7202 83.5354 25.8665C83.5354 25.903 83.3712 26.1224 83.043 26.5246C82.7512 26.8902 82.423 27.2559 82.0583 27.6215C81.73 27.9871 81.5294 28.2248 81.4565 28.3345C80.9824 28.8829 80.4171 29.5411 79.7606 30.3089C79.1041 31.0767 78.3929 31.8445 77.627 32.6124C76.8976 33.3436 76.1317 33.9652 75.3293 34.4771C74.5269 34.9524 73.7428 35.1901 72.9769 35.1901Z" fill="#2C1607"/>
<path d="M50.2735 35.7935C50.0912 35.7935 50 35.6655 50 35.4096C50 34.8977 50.2918 34.0202 50.8753 32.777C51.4953 31.4973 52.2977 30.0165 53.2824 28.3346C54.2672 26.6527 55.3431 24.8794 56.5101 23.0147C57.6772 21.1499 58.8261 19.3766 59.9567 17.6947C61.0873 15.9763 62.0903 14.4772 62.9656 13.1975C63.8774 11.9177 64.5521 11.0037 64.9897 10.4552C64.625 10.4918 63.9503 10.6198 62.9656 10.8391C61.9808 11.0219 60.9414 11.2779 59.8473 11.607C58.7531 11.8995 57.8049 12.2834 57.0025 12.7587C56.2366 13.1975 55.8537 13.6911 55.8537 14.2395C55.8537 14.4223 55.8719 14.5503 55.9084 14.6234C55.9813 14.6965 56.0178 14.7697 56.0178 14.8428C56.0178 15.0987 55.8719 15.2267 55.5801 15.2267C55.3248 15.2267 55.1425 15.0256 55.0331 14.6234C54.9601 14.1847 54.9236 13.8739 54.9236 13.6911C54.9236 12.8501 55.2519 12.1006 55.9084 11.4424C56.6013 10.7477 57.3855 10.1627 58.2608 9.68739C59.1726 9.17551 59.9567 8.80988 60.6132 8.5905C62.3273 8.00549 64.2238 7.60329 66.3027 7.38391C68.418 7.12797 70.3328 7 72.0469 7C73.0681 7 74.1076 7.07313 75.1653 7.21938C76.2594 7.32907 77.1712 7.67642 77.9006 8.26143C78.6665 8.80988 79.0494 9.74224 79.0494 11.0585C79.0494 11.351 78.9947 11.7349 78.8853 12.2102C78.7759 12.649 78.5936 13.0512 78.3383 13.4168C78.1194 13.7459 77.8094 13.9104 77.4082 13.9104C77.2988 13.9104 77.2441 13.8922 77.2441 13.8556C77.2441 13.7825 77.3353 13.5996 77.5177 13.3071C77.7365 13.0146 77.8459 12.6856 77.8459 12.3199C77.8459 11.7715 77.5541 11.3327 76.9706 11.0037C76.4235 10.6746 75.7488 10.4552 74.9464 10.3455C74.1441 10.1993 73.3782 10.1079 72.6487 10.0713C71.9193 10.0347 71.3722 10.0165 71.0075 10.0165C69.8769 10.0165 68.7281 10.0713 67.561 10.181C67.9257 10.3272 68.1992 10.5466 68.3816 10.8391C67.1051 12.2651 65.8103 13.7276 64.4974 15.2267C63.2209 16.6892 61.9991 18.1883 60.832 19.724H72.9223C73.1046 19.724 73.1958 19.7971 73.1958 19.9434C73.1958 20.2724 73.0134 20.5284 72.6487 20.7112C72.3205 20.8574 72.0287 20.9488 71.7734 20.9854C71.2993 21.0585 70.7887 21.1134 70.2416 21.1499C69.731 21.1865 69.2204 21.2413 68.7098 21.3145C67.0686 21.4607 65.3909 21.6435 63.6768 21.8629C61.9626 22.0823 60.3214 22.4662 58.7531 23.0147C57.2213 24.8794 55.8901 26.8721 54.7595 28.9927C53.6289 31.0768 52.4253 33.1244 51.1488 35.1353C51.0394 35.2816 50.9118 35.4278 50.7659 35.5741C50.6565 35.7203 50.4924 35.7935 50.2735 35.7935Z" fill="#2C1607"/>
<defs>
<clipPath id="clip0_205_2884">
<rect width="44" height="44" fill="white"/>
</clipPath>
</defs>
</svg>
